<?xml version="1.0" encoding="UTF-8"?>
<svg width="20px" height="20px" viewBox="0 0 20 20" version="1.1" xmlns="http://www.w3.org/2000/svg" xmlns:xlink="http://www.w3.org/1999/xlink">
    <title>EFD0BA0C-58FA-42CD-A20B-5509C8E2DB8A</title>
    <g id="Page-1" stroke="none" stroke-width="1" fill="none" fill-rule="evenodd">
        <g id="adding-new-API-Calls" transform="translate(-1008.000000, -434.000000)" fill="#006FD4" fill-rule="nonzero">
            <g id="Dropdown/Select/Default-Copy-21" transform="translate(998.000000, 424.000000)">
                <g id="Logo/Circle" transform="translate(10.000000, 10.000000)">
                    <path d="M1.29703932,0.0032523761 L18.8899653,0.0032523761 C19.0459735,0.0032523761 19.2499842,-0.0213437182 19.3819912,0.0647426118 C19.4899968,0.138530895 19.4779962,0.249213319 19.4779962,0.359895743 L19.4779962,4.27067473 C19.4779962,4.38135716 19.4659956,4.49203958 19.3819912,4.56582786 C19.2859861,4.66421224 19.1779804,4.66421224 19.0459735,4.66421224 L17.3538844,4.66421224 C17.2098768,4.66421224 17.0658693,4.65191419 16.9698642,4.54123177 C16.8858598,4.44284739 16.8858598,4.30756887 16.8858598,4.1845884 L16.8858598,2.64733251 L3.20513974,2.64733251 L3.20513974,4.22148254 C3.20513974,4.34446302 3.19313911,4.46744349 3.10913469,4.56582786 C3.01312964,4.66421224 2.89312332,4.66421224 2.77311701,4.66421224 L0.997023528,4.66421224 C0.877017211,4.66421224 0.757010895,4.66421224 0.661005842,4.56582786 C0.56500079,4.46744349 0.56500079,4.35676106 0.553000158,4.22148254 L0.553000158,0.679644969 C0.553000158,0.54436645 0.540999526,0.396789884 0.56500079,0.261511366 C0.589002053,0.138530895 0.697007737,0.0401465175 0.817014053,0.0155504232 C0.985022896,-0.00904567103 1.14103111,0.0032523761 1.29703932,0.0032523761 Z" id="Path"></path>
                    <path d="M4.94523133,4.62744108 L7.27335386,4.62744108 C7.41736144,4.62744108 7.58537028,4.63973913 7.68137534,4.7627196 C7.76537976,4.86110398 7.76537976,4.98408445 7.76537976,5.10706492 L7.76537976,6.87798371 C7.76537976,7.01326222 7.76537976,7.1362427 7.6693747,7.24692512 C7.57336965,7.3453095 7.4413627,7.3453095 7.30935576,7.3453095 L5.18524396,7.3453095 C5.02923575,7.3453095 4.86122691,7.35760754 4.71721933,7.3207134 C4.57321175,7.25922317 4.51320859,7.12394465 4.51320859,6.96407004 L4.51320859,5.10706492 C4.51320859,4.9717864 4.51320859,4.84880593 4.59721301,4.75042155 C4.69321806,4.63973913 4.82522501,4.62744108 4.94523133,4.62744108 L4.94523133,4.62744108 Z M9.5294726,6.74270519 L11.9055977,6.74270519 C12.025604,6.74270519 12.1336097,6.74270519 12.2296147,6.82879152 C12.3256198,6.91487785 12.3376204,7.02556027 12.3376204,7.14854074 L12.3376204,8.96865172 C12.3376204,9.11622828 12.2896179,9.23920876 12.1576109,9.31299704 C12.0136033,9.37448727 11.8215932,9.34989118 11.665585,9.34989118 L9.57747513,9.34989118 C9.44546818,9.34989118 9.32546187,9.34989118 9.22945681,9.2515068 C9.13345176,9.15312243 9.13345176,9.01784391 9.13345176,8.89486344 L9.13345176,7.21003098 C9.13345176,7.07475246 9.14545239,6.95177199 9.24145745,6.85338761 C9.31346123,6.75500323 9.40946629,6.75500323 9.5294726,6.74270519 L9.5294726,6.74270519 Z M5.19724459,8.71039273 L7.32135639,8.71039273 C7.4413627,8.71039273 7.54936839,8.72269078 7.63337281,8.80877711 C7.72937786,8.90716148 7.72937786,9.04244 7.72937786,9.16542047 L7.72937786,10.8994451 C7.72937786,11.0224256 7.71737723,11.12081 7.63337281,11.2068963 C7.53736776,11.3052807 7.41736144,11.3052807 7.28535449,11.3052807 L4.95723196,11.3052807 C4.83722564,11.3052807 4.72921996,11.3052807 4.63321491,11.2191943 C4.53720985,11.133108 4.52520922,11.0224256 4.51320859,10.8994451 L4.51320859,9.16542047 C4.51320859,9.03014195 4.51320859,8.89486344 4.62121427,8.79647906 C4.75322122,8.67349859 5.01723512,8.72269078 5.19724459,8.71039273 L5.19724459,8.71039273 Z M14.0657114,8.71039273 L16.4778383,8.71039273 C16.5978446,8.71039273 16.7058503,8.72269078 16.7898547,8.80877711 C16.8978604,8.90716148 16.8858598,9.04244 16.8858598,9.17771852 L16.8858598,10.9117432 C16.8858598,11.0347236 16.8738592,11.1454061 16.7778541,11.2314924 C16.681849,11.3298768 16.5618427,11.3298768 16.4298358,11.3298768 L14.3777278,11.3298768 C14.2097189,11.3298768 14.0297095,11.3421748 13.8737012,11.3052807 C13.7296937,11.2437904 13.6696905,11.1085119 13.6696905,10.9609354 L13.6696905,9.19001657 C13.6696905,9.05473805 13.6696905,8.94405562 13.7656956,8.8333732 C13.8497,8.73498882 13.9577057,8.71039273 14.0657114,8.71039273 L14.0657114,8.71039273 Z M9.5294726,10.7272725 L11.9055977,10.7272725 C12.025604,10.7272725 12.1336097,10.7272725 12.2296147,10.8133588 C12.3256198,10.8994451 12.3376204,11.0224256 12.3376204,11.1454061 L12.3376204,12.965517 C12.3376204,13.1007956 12.2896179,13.211478 12.1816122,13.2852663 C12.0376046,13.3590545 11.8335939,13.3344585 11.665585,13.3344585 L9.57747513,13.3344585 C9.44546818,13.3344585 9.32546187,13.3344585 9.22945681,13.2360741 C9.13345176,13.1376897 9.13345176,13.0147092 9.12145113,12.8794307 L9.12145113,11.1945983 C9.12145113,11.0593197 9.12145113,10.9240412 9.21745618,10.8379549 C9.3014606,10.7395705 9.40946629,10.7395705 9.5294726,10.7272725 L9.5294726,10.7272725 Z M5.19724459,12.69496 L7.33335702,12.69496 C7.45336333,12.69496 7.56136902,12.707258 7.64537344,12.8056424 C7.72937786,12.9040268 7.72937786,13.0147092 7.72937786,13.1376897 L7.72937786,14.8717143 C7.72937786,14.9946948 7.72937786,15.1053772 7.64537344,15.2037616 C7.56136902,15.302146 7.4413627,15.314444 7.32135639,15.314444 L4.94523133,15.314444 C4.81322438,15.314444 4.68121743,15.314444 4.59721301,15.1914636 C4.51320859,15.0807811 4.51320859,14.9578007 4.51320859,14.8225222 L4.51320859,13.0884975 C4.51320859,12.9286229 4.57321175,12.7933444 4.71721933,12.7318541 C4.86122691,12.682662 5.04123638,12.707258 5.19724459,12.69496 L5.19724459,12.69496 Z M1.05702669,15.3513382 L2.78511764,15.3513382 C2.91712459,15.3513382 3.04913153,15.3636362 3.14513659,15.4743187 C3.22914101,15.572703 3.21714038,15.6833855 3.22914101,15.8063659 L3.22914101,17.3682179 L16.9578636,17.3682179 L16.9578636,15.8432601 C16.9578636,15.7202796 16.9578636,15.5972991 17.0538686,15.4989147 C17.1618743,15.3882323 17.2818806,15.3882323 17.4258882,15.3882323 L19.0339728,15.3882323 C19.1539792,15.3882323 19.2979867,15.3882323 19.3939918,15.4620206 C19.5019975,15.5481069 19.55,15.6956835 19.55,15.830962 L19.55,19.5818664 C19.55,19.7171449 19.5379994,19.8278273 19.4419943,19.9139137 C19.321988,20.0368941 19.1059766,19.987702 18.9499684,20 L1.03302542,20 C0.925019738,20 0.829014685,19.987702 0.757010895,19.9139137 C0.661005842,19.8278273 0.649005211,19.7048469 0.649005211,19.5818664 L0.649005211,15.7940679 C0.649005211,15.6464913 0.673006474,15.5112128 0.781012159,15.4128284 C0.841015317,15.3513382 0.949021001,15.3636362 1.05702669,15.3513382 L1.05702669,15.3513382 Z" id="Shape"></path>
                </g>
            </g>
        </g>
    </g>
</svg>